<?xml version="1.0" encoding="utf-8" standalone="no"?>
<!DOCTYPE svg PUBLIC "-//W3C//DTD SVG 1.1//EN"
  "http://www.w3.org/Graphics/SVG/1.1/DTD/svg11.dtd">
<svg xmlns:xlink="http://www.w3.org/1999/xlink" width="496.69125pt" height="208.8pt" viewBox="0 0 496.69125 208.8" xmlns="http://www.w3.org/2000/svg" version="1.1">
 <metadata>
  <rdf:RDF xmlns:dc="http://purl.org/dc/elements/1.1/" xmlns:cc="http://creativecommons.org/ns#" xmlns:rdf="http://www.w3.org/1999/02/22-rdf-syntax-ns#">
   <cc:Work>
    <dc:type rdf:resource="http://purl.org/dc/dcmitype/StillImage"/>
    <dc:date>2025-08-21T02:23:01.671868</dc:date>
    <dc:format>image/svg+xml</dc:format>
    <dc:creator>
     <cc:Agent>
      <dc:title>Matplotlib v3.10.3, https://matplotlib.org/</dc:title>
     </cc:Agent>
    </dc:creator>
   </cc:Work>
  </rdf:RDF>
 </metadata>
 <defs>
  <style type="text/css">*{stroke-linejoin: round; stroke-linecap: butt}</style>
 </defs>
 <g id="figure_1">
  <g id="patch_1">
   <path d="M 0 208.8 
L 496.69125 208.8 
L 496.69125 0 
L 0 0 
L 0 208.8 
z
" style="fill: none"/>
  </g>
  <g id="axes_1">
   <g id="patch_2">
    <path d="M 73.31125 201.6 
L 489.49125 201.6 
L 489.49125 7.2 
L 73.31125 7.2 
L 73.31125 201.6 
z
" style="fill: none"/>
   </g>
   <g id="patch_3">
    <path d="M 73.31125 192.763636 
L 114.640236 192.763636 
L 114.640236 163.309091 
L 73.31125 163.309091 
z
" clip-path="url(#p1fcb824b18)" style="fill: #a8d5ba"/>
   </g>
   <g id="patch_4">
    <path d="M 73.31125 155.945455 
L 257.578248 155.945455 
L 257.578248 126.490909 
L 73.31125 126.490909 
z
" clip-path="url(#p1fcb824b18)" style="fill: #90c3d4"/>
   </g>
   <g id="patch_5">
    <path d="M 73.31125 119.127273 
L 343.147669 119.127273 
L 343.147669 89.672727 
L 73.31125 89.672727 
z
" clip-path="url(#p1fcb824b18)" style="fill: #f3d6ba"/>
   </g>
   <g id="patch_6">
    <path d="M 73.31125 82.309091 
L 440.179826 82.309091 
L 440.179826 52.854545 
L 73.31125 52.854545 
z
" clip-path="url(#p1fcb824b18)" style="fill: #d6a8d1"/>
   </g>
   <g id="patch_7">
    <path d="M 73.31125 45.490909 
L 337.955329 45.490909 
L 337.955329 16.036364 
L 73.31125 16.036364 
z
" clip-path="url(#p1fcb824b18)" style="fill: #f2a8a8"/>
   </g>
   <g id="matplotlib.axis_1">
    <g id="ytick_1">
     <g id="text_1">
      <!-- Thursday -->
      <g transform="translate(10.741875 182.476364) scale(0.12 -0.12)">
       <defs>
        <path id="Poppins-Regular-54" d="M 3238 4461 
L 3238 3987 
L 2022 3987 
L 2022 0 
L 1440 0 
L 1440 3987 
L 218 3987 
L 218 4461 
L 3238 4461 
z
" transform="scale(0.015625)"/>
        <path id="Poppins-Regular-68" d="M 2234 3571 
Q 2630 3571 2950 3401 
Q 3270 3232 3452 2893 
Q 3635 2554 3635 2067 
L 3635 0 
L 3059 0 
L 3059 1984 
Q 3059 2509 2796 2787 
Q 2534 3066 2080 3066 
Q 1619 3066 1347 2778 
Q 1075 2490 1075 1939 
L 1075 0 
L 493 0 
L 493 4736 
L 1075 4736 
L 1075 3008 
Q 1248 3277 1552 3424 
Q 1856 3571 2234 3571 
z
" transform="scale(0.015625)"/>
        <path id="Poppins-Regular-75" d="M 3603 3507 
L 3603 0 
L 3021 0 
L 3021 518 
Q 2854 250 2556 99 
Q 2259 -51 1901 -51 
Q 1491 -51 1164 118 
Q 838 288 649 627 
Q 461 966 461 1453 
L 461 3507 
L 1037 3507 
L 1037 1530 
Q 1037 1011 1299 732 
Q 1562 454 2016 454 
Q 2483 454 2752 742 
Q 3021 1030 3021 1581 
L 3021 3507 
L 3603 3507 
z
" transform="scale(0.015625)"/>
        <path id="Poppins-Regular-72" d="M 1075 2938 
Q 1229 3238 1513 3404 
Q 1798 3571 2208 3571 
L 2208 2970 
L 2054 2970 
Q 1075 2970 1075 1907 
L 1075 0 
L 493 0 
L 493 3507 
L 1075 3507 
L 1075 2938 
z
" transform="scale(0.015625)"/>
        <path id="Poppins-Regular-73" d="M 1734 -58 
Q 1331 -58 1011 80 
Q 691 218 505 464 
Q 320 710 301 1030 
L 902 1030 
Q 928 768 1149 601 
Q 1370 435 1728 435 
Q 2061 435 2253 582 
Q 2445 730 2445 954 
Q 2445 1184 2240 1296 
Q 2035 1408 1606 1517 
Q 1216 1619 969 1724 
Q 723 1830 547 2038 
Q 371 2246 371 2586 
Q 371 2854 531 3078 
Q 691 3302 985 3433 
Q 1280 3565 1658 3565 
Q 2240 3565 2598 3270 
Q 2957 2976 2982 2464 
L 2400 2464 
Q 2381 2739 2179 2905 
Q 1978 3072 1638 3072 
Q 1325 3072 1139 2937 
Q 954 2803 954 2586 
Q 954 2413 1066 2301 
Q 1178 2189 1347 2121 
Q 1517 2054 1818 1971 
Q 2195 1869 2432 1769 
Q 2669 1670 2838 1472 
Q 3008 1274 3014 954 
Q 3014 666 2854 435 
Q 2694 205 2403 73 
Q 2112 -58 1734 -58 
z
" transform="scale(0.015625)"/>
        <path id="Poppins-Regular-64" d="M 275 1766 
Q 275 2304 492 2710 
Q 710 3117 1091 3341 
Q 1472 3565 1946 3565 
Q 2355 3565 2707 3376 
Q 3059 3187 3245 2880 
L 3245 4736 
L 3834 4736 
L 3834 0 
L 3245 0 
L 3245 659 
Q 3072 346 2733 144 
Q 2394 -58 1939 -58 
Q 1472 -58 1091 172 
Q 710 403 492 819 
Q 275 1235 275 1766 
z
M 3245 1760 
Q 3245 2157 3085 2451 
Q 2925 2746 2653 2902 
Q 2381 3059 2054 3059 
Q 1728 3059 1459 2905 
Q 1190 2752 1030 2457 
Q 870 2163 870 1766 
Q 870 1363 1030 1065 
Q 1190 768 1459 611 
Q 1728 454 2054 454 
Q 2381 454 2653 611 
Q 2925 768 3085 1065 
Q 3245 1363 3245 1760 
z
" transform="scale(0.015625)"/>
        <path id="Poppins-Regular-61" d="M 275 1766 
Q 275 2304 492 2710 
Q 710 3117 1091 3341 
Q 1472 3565 1939 3565 
Q 2400 3565 2739 3366 
Q 3078 3168 3245 2867 
L 3245 3507 
L 3834 3507 
L 3834 0 
L 3245 0 
L 3245 653 
Q 3072 346 2729 144 
Q 2387 -58 1933 -58 
Q 1466 -58 1088 172 
Q 710 403 492 819 
Q 275 1235 275 1766 
z
M 3245 1760 
Q 3245 2157 3085 2451 
Q 2925 2746 2653 2902 
Q 2381 3059 2054 3059 
Q 1728 3059 1459 2905 
Q 1190 2752 1030 2457 
Q 870 2163 870 1766 
Q 870 1363 1030 1065 
Q 1190 768 1459 611 
Q 1728 454 2054 454 
Q 2381 454 2653 611 
Q 2925 768 3085 1065 
Q 3245 1363 3245 1760 
z
" transform="scale(0.015625)"/>
        <path id="Poppins-Regular-79" d="M 3514 3507 
L 1402 -1651 
L 800 -1651 
L 1491 38 
L 77 3507 
L 723 3507 
L 1824 666 
L 2912 3507 
L 3514 3507 
z
" transform="scale(0.015625)"/>
       </defs>
       <use xlink:href="#Poppins-Regular-54"/>
       <use xlink:href="#Poppins-Regular-68" transform="translate(54.099991 0)"/>
       <use xlink:href="#Poppins-Regular-75" transform="translate(118.099976 0)"/>
       <use xlink:href="#Poppins-Regular-72" transform="translate(182.09996 0)"/>
       <use xlink:href="#Poppins-Regular-73" transform="translate(219.399948 0)"/>
       <use xlink:href="#Poppins-Regular-64" transform="translate(271.599945 0)"/>
       <use xlink:href="#Poppins-Regular-61" transform="translate(339.199936 0)"/>
       <use xlink:href="#Poppins-Regular-79" transform="translate(406.799927 0)"/>
      </g>
     </g>
    </g>
    <g id="ytick_2">
     <g id="text_2">
      <!-- Week 34 -->
      <g transform="translate(15.718125 145.658182) scale(0.12 -0.12)">
       <defs>
        <path id="Poppins-Regular-57" d="M 6099 4461 
L 4806 0 
L 4154 0 
L 3117 3590 
L 2042 0 
L 1395 -6 
L 147 4461 
L 768 4461 
L 1741 678 
L 2816 4461 
L 3469 4461 
L 4493 691 
L 5472 4461 
L 6099 4461 
z
" transform="scale(0.015625)"/>
        <path id="Poppins-Regular-65" d="M 3693 1888 
Q 3693 1722 3674 1536 
L 870 1536 
Q 902 1018 1225 726 
Q 1549 435 2010 435 
Q 2387 435 2640 611 
Q 2893 787 2995 1082 
L 3622 1082 
Q 3482 576 3059 259 
Q 2637 -58 2010 -58 
Q 1510 -58 1116 166 
Q 723 390 499 803 
Q 275 1216 275 1760 
Q 275 2304 492 2713 
Q 710 3123 1104 3344 
Q 1498 3565 2010 3565 
Q 2509 3565 2893 3347 
Q 3277 3130 3485 2749 
Q 3693 2368 3693 1888 
z
M 3091 2010 
Q 3091 2342 2944 2582 
Q 2797 2822 2544 2947 
Q 2291 3072 1984 3072 
Q 1542 3072 1232 2790 
Q 922 2509 877 2010 
L 3091 2010 
z
" transform="scale(0.015625)"/>
        <path id="Poppins-Regular-6b" d="M 2451 0 
L 1075 1549 
L 1075 0 
L 493 0 
L 493 4736 
L 1075 4736 
L 1075 1952 
L 2426 3507 
L 3238 3507 
L 1587 1760 
L 3245 0 
L 2451 0 
z
" transform="scale(0.015625)"/>
        <path id="Poppins-Regular-20" transform="scale(0.015625)"/>
        <path id="Poppins-Regular-33" d="M 384 3462 
Q 429 4051 838 4384 
Q 1248 4717 1901 4717 
Q 2336 4717 2653 4560 
Q 2970 4403 3133 4134 
Q 3296 3866 3296 3526 
Q 3296 3130 3069 2842 
Q 2842 2554 2477 2470 
L 2477 2438 
Q 2893 2336 3136 2035 
Q 3379 1734 3379 1248 
Q 3379 883 3212 592 
Q 3046 301 2713 134 
Q 2381 -32 1914 -32 
Q 1235 -32 800 323 
Q 365 678 314 1331 
L 877 1331 
Q 922 947 1190 704 
Q 1459 461 1907 461 
Q 2355 461 2588 694 
Q 2822 928 2822 1299 
Q 2822 1779 2502 1990 
Q 2182 2202 1536 2202 
L 1389 2202 
L 1389 2688 
L 1542 2688 
Q 2131 2694 2432 2883 
Q 2733 3072 2733 3469 
Q 2733 3808 2512 4013 
Q 2291 4218 1882 4218 
Q 1485 4218 1241 4013 
Q 998 3808 954 3462 
L 384 3462 
z
" transform="scale(0.015625)"/>
        <path id="Poppins-Regular-34" d="M 256 1030 
L 256 1472 
L 2502 4582 
L 3200 4582 
L 3200 1536 
L 3840 1536 
L 3840 1030 
L 3200 1030 
L 3200 0 
L 2624 0 
L 2624 1030 
L 256 1030 
z
M 2650 3974 
L 928 1536 
L 2650 1536 
L 2650 3974 
z
" transform="scale(0.015625)"/>
       </defs>
       <use xlink:href="#Poppins-Regular-57"/>
       <use xlink:href="#Poppins-Regular-65" transform="translate(97.599991 0)"/>
       <use xlink:href="#Poppins-Regular-65" transform="translate(159.599976 0)"/>
       <use xlink:href="#Poppins-Regular-6b" transform="translate(221.59996 0)"/>
       <use xlink:href="#Poppins-Regular-20" transform="translate(273.099945 0)"/>
       <use xlink:href="#Poppins-Regular-33" transform="translate(299.799942 0)"/>
       <use xlink:href="#Poppins-Regular-34" transform="translate(358.699936 0)"/>
      </g>
     </g>
    </g>
    <g id="ytick_3">
     <g id="text_3">
      <!-- August -->
      <g transform="translate(24.118125 108.78) scale(0.12 -0.12)">
       <defs>
        <path id="Poppins-Regular-41" d="M 3130 992 
L 1184 992 
L 826 0 
L 211 0 
L 1824 4435 
L 2496 4435 
L 4102 0 
L 3488 0 
L 3130 992 
z
M 2963 1466 
L 2157 3718 
L 1350 1466 
L 2963 1466 
z
" transform="scale(0.015625)"/>
        <path id="Poppins-Regular-67" d="M 1939 3565 
Q 2394 3565 2736 3366 
Q 3078 3168 3245 2867 
L 3245 3507 
L 3834 3507 
L 3834 -77 
Q 3834 -557 3629 -931 
Q 3424 -1306 3043 -1517 
Q 2662 -1728 2157 -1728 
Q 1466 -1728 1005 -1401 
Q 544 -1075 461 -512 
L 1037 -512 
Q 1133 -832 1433 -1027 
Q 1734 -1222 2157 -1222 
Q 2637 -1222 2941 -921 
Q 3245 -621 3245 -77 
L 3245 659 
Q 3072 352 2733 147 
Q 2394 -58 1939 -58 
Q 1472 -58 1091 172 
Q 710 403 492 819 
Q 275 1235 275 1766 
Q 275 2304 492 2710 
Q 710 3117 1091 3341 
Q 1472 3565 1939 3565 
z
M 3245 1760 
Q 3245 2157 3085 2451 
Q 2925 2746 2653 2902 
Q 2381 3059 2054 3059 
Q 1728 3059 1459 2905 
Q 1190 2752 1030 2457 
Q 870 2163 870 1766 
Q 870 1363 1030 1065 
Q 1190 768 1459 611 
Q 1728 454 2054 454 
Q 2381 454 2653 611 
Q 2925 768 3085 1065 
Q 3245 1363 3245 1760 
z
" transform="scale(0.015625)"/>
        <path id="Poppins-Regular-74" d="M 1203 3027 
L 1203 960 
Q 1203 704 1312 598 
Q 1421 493 1690 493 
L 2118 493 
L 2118 0 
L 1594 0 
Q 1107 0 864 224 
Q 621 448 621 960 
L 621 3027 
L 166 3027 
L 166 3507 
L 621 3507 
L 621 4390 
L 1203 4390 
L 1203 3507 
L 2118 3507 
L 2118 3027 
L 1203 3027 
z
" transform="scale(0.015625)"/>
       </defs>
       <use xlink:href="#Poppins-Regular-41"/>
       <use xlink:href="#Poppins-Regular-75" transform="translate(67.399994 0)"/>
       <use xlink:href="#Poppins-Regular-67" transform="translate(131.399979 0)"/>
       <use xlink:href="#Poppins-Regular-75" transform="translate(198.999969 0)"/>
       <use xlink:href="#Poppins-Regular-73" transform="translate(262.999954 0)"/>
       <use xlink:href="#Poppins-Regular-74" transform="translate(315.199951 0)"/>
      </g>
     </g>
    </g>
    <g id="ytick_4">
     <g id="text_4">
      <!-- Summer -->
      <g transform="translate(14.95125 72.021818) scale(0.12 -0.12)">
       <defs>
        <path id="Poppins-Regular-53" d="M 1907 -45 
Q 1466 -45 1117 112 
Q 768 269 569 547 
Q 371 826 365 1190 
L 986 1190 
Q 1018 877 1245 662 
Q 1472 448 1907 448 
Q 2323 448 2563 656 
Q 2803 864 2803 1190 
Q 2803 1446 2662 1606 
Q 2522 1766 2310 1849 
Q 2099 1933 1741 2029 
Q 1299 2144 1033 2259 
Q 768 2374 579 2620 
Q 390 2867 390 3283 
Q 390 3648 576 3929 
Q 762 4211 1098 4364 
Q 1434 4518 1869 4518 
Q 2496 4518 2896 4204 
Q 3296 3891 3347 3373 
L 2707 3373 
Q 2675 3629 2438 3824 
Q 2202 4019 1811 4019 
Q 1446 4019 1216 3830 
Q 986 3642 986 3302 
Q 986 3059 1123 2905 
Q 1261 2752 1462 2672 
Q 1664 2592 2029 2490 
Q 2470 2368 2739 2249 
Q 3008 2131 3200 1884 
Q 3392 1638 3392 1216 
Q 3392 890 3219 602 
Q 3046 314 2707 134 
Q 2368 -45 1907 -45 
z
" transform="scale(0.015625)"/>
        <path id="Poppins-Regular-6d" d="M 4710 3571 
Q 5120 3571 5440 3401 
Q 5760 3232 5945 2893 
Q 6131 2554 6131 2067 
L 6131 0 
L 5555 0 
L 5555 1984 
Q 5555 2509 5296 2787 
Q 5037 3066 4595 3066 
Q 4141 3066 3872 2774 
Q 3603 2483 3603 1933 
L 3603 0 
L 3027 0 
L 3027 1984 
Q 3027 2509 2768 2787 
Q 2509 3066 2067 3066 
Q 1613 3066 1344 2774 
Q 1075 2483 1075 1933 
L 1075 0 
L 493 0 
L 493 3507 
L 1075 3507 
L 1075 3002 
Q 1248 3277 1539 3424 
Q 1830 3571 2182 3571 
Q 2624 3571 2963 3372 
Q 3302 3174 3469 2790 
Q 3616 3162 3955 3366 
Q 4294 3571 4710 3571 
z
" transform="scale(0.015625)"/>
       </defs>
       <use xlink:href="#Poppins-Regular-53"/>
       <use xlink:href="#Poppins-Regular-75" transform="translate(58.699997 0)"/>
       <use xlink:href="#Poppins-Regular-6d" transform="translate(122.699982 0)"/>
       <use xlink:href="#Poppins-Regular-6d" transform="translate(225.699966 0)"/>
       <use xlink:href="#Poppins-Regular-65" transform="translate(328.699951 0)"/>
       <use xlink:href="#Poppins-Regular-72" transform="translate(390.699936 0)"/>
      </g>
     </g>
    </g>
    <g id="ytick_5">
     <g id="text_5">
      <!-- Year 2025 -->
      <g transform="translate(7.2 35.203636) scale(0.12 -0.12)">
       <defs>
        <path id="Poppins-Regular-59" d="M 3616 4461 
L 2163 1683 
L 2163 0 
L 1581 0 
L 1581 1683 
L 122 4461 
L 768 4461 
L 1869 2202 
L 2970 4461 
L 3616 4461 
z
" transform="scale(0.015625)"/>
        <path id="Poppins-Regular-32" d="M 326 467 
Q 1139 1120 1600 1539 
Q 2061 1958 2377 2416 
Q 2694 2874 2694 3315 
Q 2694 3731 2492 3971 
Q 2291 4211 1843 4211 
Q 1408 4211 1168 3939 
Q 928 3667 909 3213 
L 346 3213 
Q 371 3930 780 4320 
Q 1190 4710 1837 4710 
Q 2496 4710 2883 4345 
Q 3270 3981 3270 3341 
Q 3270 2810 2953 2307 
Q 2637 1805 2233 1424 
Q 1830 1043 1203 538 
L 3405 538 
L 3405 51 
L 326 51 
L 326 467 
z
" transform="scale(0.015625)"/>
        <path id="Poppins-Regular-30" d="M 397 2362 
Q 397 3462 755 4080 
Q 1114 4698 2010 4698 
Q 2899 4698 3257 4080 
Q 3616 3462 3616 2362 
Q 3616 1242 3257 621 
Q 2899 0 2010 0 
Q 1114 0 755 621 
Q 397 1242 397 2362 
z
M 3040 2362 
Q 3040 2918 2966 3305 
Q 2893 3693 2665 3929 
Q 2438 4166 2010 4166 
Q 1574 4166 1347 3929 
Q 1120 3693 1046 3305 
Q 973 2918 973 2362 
Q 973 1786 1046 1395 
Q 1120 1005 1347 768 
Q 1574 531 2010 531 
Q 2438 531 2665 768 
Q 2893 1005 2966 1395 
Q 3040 1786 3040 2362 
z
" transform="scale(0.015625)"/>
        <path id="Poppins-Regular-35" d="M 3347 4122 
L 1101 4122 
L 1101 2662 
Q 1248 2867 1536 2998 
Q 1824 3130 2157 3130 
Q 2688 3130 3021 2909 
Q 3354 2688 3498 2339 
Q 3642 1990 3642 1600 
Q 3642 1139 3469 774 
Q 3296 410 2941 198 
Q 2586 -13 2061 -13 
Q 1389 -13 973 332 
Q 557 678 467 1254 
L 1037 1254 
Q 1120 890 1389 685 
Q 1658 480 2067 480 
Q 2573 480 2829 784 
Q 3085 1088 3085 1587 
Q 3085 2086 2829 2358 
Q 2573 2630 2074 2630 
Q 1734 2630 1481 2467 
Q 1229 2304 1114 2022 
L 563 2022 
L 563 4634 
L 3347 4634 
L 3347 4122 
z
" transform="scale(0.015625)"/>
       </defs>
       <use xlink:href="#Poppins-Regular-59"/>
       <use xlink:href="#Poppins-Regular-65" transform="translate(58.399994 0)"/>
       <use xlink:href="#Poppins-Regular-61" transform="translate(120.399979 0)"/>
       <use xlink:href="#Poppins-Regular-72" transform="translate(187.999969 0)"/>
       <use xlink:href="#Poppins-Regular-20" transform="translate(225.299957 0)"/>
       <use xlink:href="#Poppins-Regular-32" transform="translate(251.999954 0)"/>
       <use xlink:href="#Poppins-Regular-30" transform="translate(309.499939 0)"/>
       <use xlink:href="#Poppins-Regular-32" transform="translate(372.299927 0)"/>
       <use xlink:href="#Poppins-Regular-35" transform="translate(429.799911 0)"/>
      </g>
     </g>
    </g>
   </g>
   <g id="text_6">
    <!-- 9.93% -->
    <g transform="translate(118.802036 180.916364) scale(0.12 -0.12)">
     <defs>
      <path id="Poppins-Regular-39" d="M 1146 1242 
Q 1210 877 1443 678 
Q 1677 480 2074 480 
Q 2605 480 2857 896 
Q 3110 1312 3098 2298 
Q 2963 2010 2649 1846 
Q 2336 1683 1952 1683 
Q 1523 1683 1187 1859 
Q 851 2035 659 2374 
Q 467 2714 467 3194 
Q 467 3878 864 4297 
Q 1261 4717 1990 4717 
Q 2886 4717 3248 4134 
Q 3610 3552 3610 2400 
Q 3610 1594 3466 1069 
Q 3322 544 2979 269 
Q 2637 -6 2042 -6 
Q 1389 -6 1024 346 
Q 659 698 608 1242 
L 1146 1242 
z
M 2048 2176 
Q 2477 2176 2752 2441 
Q 3027 2707 3027 3162 
Q 3027 3642 2758 3936 
Q 2490 4230 2003 4230 
Q 1555 4230 1289 3948 
Q 1024 3667 1024 3206 
Q 1024 2739 1286 2457 
Q 1549 2176 2048 2176 
z
" transform="scale(0.015625)"/>
      <path id="Poppins-Regular-2e" d="M 678 -38 
Q 512 -38 397 77 
Q 282 192 282 358 
Q 282 525 397 640 
Q 512 755 678 755 
Q 838 755 950 640 
Q 1062 525 1062 358 
Q 1062 192 950 77 
Q 838 -38 678 -38 
z
" transform="scale(0.015625)"/>
      <path id="Poppins-Regular-25" d="M 269 3584 
Q 269 4019 531 4278 
Q 794 4538 1203 4538 
Q 1613 4538 1875 4278 
Q 2138 4019 2138 3584 
Q 2138 3142 1875 2883 
Q 1613 2624 1203 2624 
Q 794 2624 531 2883 
Q 269 3142 269 3584 
z
M 4006 4467 
L 1414 0 
L 838 0 
L 3430 4467 
L 4006 4467 
z
M 1203 4179 
Q 986 4179 861 4028 
Q 736 3878 736 3584 
Q 736 3290 861 3136 
Q 986 2982 1203 2982 
Q 1421 2982 1549 3139 
Q 1677 3296 1677 3584 
Q 1677 3878 1549 4028 
Q 1421 4179 1203 4179 
z
M 2720 883 
Q 2720 1325 2982 1584 
Q 3245 1843 3654 1843 
Q 4064 1843 4323 1584 
Q 4582 1325 4582 883 
Q 4582 448 4323 185 
Q 4064 -77 3654 -77 
Q 3245 -77 2982 182 
Q 2720 442 2720 883 
z
M 3648 1478 
Q 3430 1478 3302 1328 
Q 3174 1178 3174 883 
Q 3174 595 3302 444 
Q 3430 294 3648 294 
Q 3866 294 3994 444 
Q 4122 595 4122 883 
Q 4122 1178 3994 1328 
Q 3866 1478 3648 1478 
z
" transform="scale(0.015625)"/>
     </defs>
     <use xlink:href="#Poppins-Regular-39"/>
     <use xlink:href="#Poppins-Regular-2e" transform="translate(62.999985 0)"/>
     <use xlink:href="#Poppins-Regular-39" transform="translate(83.999969 0)"/>
     <use xlink:href="#Poppins-Regular-33" transform="translate(146.999954 0)"/>
     <use xlink:href="#Poppins-Regular-25" transform="translate(205.899948 0)"/>
    </g>
   </g>
   <g id="text_7">
    <!-- 44.28% -->
    <g transform="translate(261.740048 144.098182) scale(0.12 -0.12)">
     <defs>
      <path id="Poppins-Regular-38" d="M 1242 2406 
Q 883 2547 691 2816 
Q 499 3085 499 3469 
Q 499 3814 672 4092 
Q 845 4371 1187 4534 
Q 1530 4698 2016 4698 
Q 2502 4698 2844 4534 
Q 3187 4371 3363 4092 
Q 3539 3814 3539 3469 
Q 3539 3098 3340 2819 
Q 3142 2541 2797 2406 
Q 3194 2285 3427 1981 
Q 3661 1677 3661 1248 
Q 3661 832 3456 521 
Q 3251 211 2876 41 
Q 2502 -128 2016 -128 
Q 1530 -128 1162 41 
Q 794 211 589 521 
Q 384 832 384 1248 
Q 384 1677 614 1984 
Q 845 2291 1242 2406 
z
M 2976 3398 
Q 2976 3789 2720 4000 
Q 2464 4211 2016 4211 
Q 1574 4211 1318 4000 
Q 1062 3789 1062 3392 
Q 1062 3034 1328 2816 
Q 1594 2598 2016 2598 
Q 2445 2598 2710 2819 
Q 2976 3040 2976 3398 
z
M 2016 2150 
Q 1542 2150 1241 1929 
Q 941 1709 941 1267 
Q 941 858 1232 608 
Q 1523 358 2016 358 
Q 2509 358 2797 608 
Q 3085 858 3085 1267 
Q 3085 1696 2790 1923 
Q 2496 2150 2016 2150 
z
" transform="scale(0.015625)"/>
     </defs>
     <use xlink:href="#Poppins-Regular-34"/>
     <use xlink:href="#Poppins-Regular-34" transform="translate(62.899994 0)"/>
     <use xlink:href="#Poppins-Regular-2e" transform="translate(125.799988 0)"/>
     <use xlink:href="#Poppins-Regular-32" transform="translate(146.799973 0)"/>
     <use xlink:href="#Poppins-Regular-38" transform="translate(204.299957 0)"/>
     <use xlink:href="#Poppins-Regular-25" transform="translate(267.399948 0)"/>
    </g>
   </g>
   <g id="text_8">
    <!-- 64.84% -->
    <g transform="translate(347.309469 107.28) scale(0.12 -0.12)">
     <defs>
      <path id="Poppins-Regular-36" d="M 2976 3526 
Q 2835 4237 2099 4237 
Q 1530 4237 1248 3798 
Q 966 3360 973 2355 
Q 1120 2688 1462 2877 
Q 1805 3066 2227 3066 
Q 2886 3066 3280 2656 
Q 3674 2246 3674 1523 
Q 3674 1088 3504 742 
Q 3334 397 2992 192 
Q 2650 -13 2163 -13 
Q 1504 -13 1133 281 
Q 762 576 614 1094 
Q 467 1613 467 2374 
Q 467 4723 2106 4723 
Q 2733 4723 3091 4384 
Q 3450 4045 3514 3526 
L 2976 3526 
z
M 2106 2573 
Q 1830 2573 1587 2461 
Q 1344 2349 1193 2121 
Q 1043 1894 1043 1568 
Q 1043 1082 1324 778 
Q 1606 474 2131 474 
Q 2579 474 2844 752 
Q 3110 1030 3110 1504 
Q 3110 2003 2854 2288 
Q 2598 2573 2106 2573 
z
" transform="scale(0.015625)"/>
     </defs>
     <use xlink:href="#Poppins-Regular-36"/>
     <use xlink:href="#Poppins-Regular-34" transform="translate(63.499985 0)"/>
     <use xlink:href="#Poppins-Regular-2e" transform="translate(126.399979 0)"/>
     <use xlink:href="#Poppins-Regular-38" transform="translate(147.399963 0)"/>
     <use xlink:href="#Poppins-Regular-34" transform="translate(210.499954 0)"/>
     <use xlink:href="#Poppins-Regular-25" transform="translate(273.399948 0)"/>
    </g>
   </g>
   <g id="text_9">
    <!-- 88.15% -->
    <g transform="translate(444.341626 70.461818) scale(0.12 -0.12)">
     <defs>
      <path id="Poppins-Regular-31" d="M 243 4096 
L 243 4627 
L 1446 4627 
L 1446 0 
L 858 0 
L 858 4096 
L 243 4096 
z
" transform="scale(0.015625)"/>
     </defs>
     <use xlink:href="#Poppins-Regular-38"/>
     <use xlink:href="#Poppins-Regular-38" transform="translate(63.099991 0)"/>
     <use xlink:href="#Poppins-Regular-2e" transform="translate(126.199982 0)"/>
     <use xlink:href="#Poppins-Regular-31" transform="translate(147.199966 0)"/>
     <use xlink:href="#Poppins-Regular-35" transform="translate(179.199951 0)"/>
     <use xlink:href="#Poppins-Regular-25" transform="translate(241.999939 0)"/>
    </g>
   </g>
   <g id="text_10">
    <!-- 63.59% -->
    <g transform="translate(342.117129 33.643636) scale(0.12 -0.12)">
     <use xlink:href="#Poppins-Regular-36"/>
     <use xlink:href="#Poppins-Regular-33" transform="translate(63.499985 0)"/>
     <use xlink:href="#Poppins-Regular-2e" transform="translate(122.399979 0)"/>
     <use xlink:href="#Poppins-Regular-35" transform="translate(143.399963 0)"/>
     <use xlink:href="#Poppins-Regular-39" transform="translate(206.199951 0)"/>
     <use xlink:href="#Poppins-Regular-25" transform="translate(269.199936 0)"/>
    </g>
   </g>
  </g>
 </g>
 <defs>
  <clipPath id="p1fcb824b18">
   <rect x="73.31125" y="7.2" width="416.18" height="194.4"/>
  </clipPath>
 </defs>
</svg>
